# xmcd
# 
# Track frame offsets:
#     150
#     17633
#     30742
#     73241
#     89756
#     108335
#     127783
#     147933
#     162028
#     180478
#     198672
#     216214
# 
# Disc length: 3312
# 
# Revision: 0
# Processed by: cddbd v1.5.2PL0 Copyright (c) Steve Scherf et al.
# Submitted via: fre:ac v1.0.31
# 
DISCID=a80cee0c
DTITLE=Chinx - welcome to jfk
DYEAR=0
DGENRE=
TTITLE0=experimental
TTITLE1=far rock
TTITLE2=go get it
TTITLE3=the other side
TTITLE4=yay
TTITLE5=thug love
TTITLE6=how to get rich
TTITLE7=on your body
TTITLE8=don't mind me
TTITLE9=Pray
TTITLE10=hey fool
TTITLE11=die young
EXTD=
EXTT0=
EXTT1=
EXTT2=
EXTT3=
EXTT4=
EXTT5=
EXTT6=
EXTT7=
EXTT8=
EXTT9=
EXTT10=
EXTT11=
PLAYORDER=
